<svg xmlns="http://www.w3.org/2000/svg" data-version="3.4.38" data-background-color="#ffffff" width="100" height="100.73265763876134" viewBox="-0 0 100.3101576387613 100.73265763876134" x="0" y="0">
    <defs>
        <mask id="03664370-a055-11eb-a2a1-3dd3524e2f10">
            <circle r="48.866328819380655" cx="-65.11632881938066" cy="23.75" fill="white" opacity="0.9"></circle>
            <circle r="45.866328819380655" cx="-65.11632881938066" cy="23.75" fill="black" opacity="1" stroke-width="0" stroke="#4285f4" data-fill-palette-color="black" data-stroke-palette-color="primary" id="circle-0" class="circle-0" data-palette-color="black"></circle>
        </mask>
    </defs>
    <g transform="matrix(1,0,0,1,113.9826576387613,25.11632881938067)">
        <g id="tight-bounds">
            <g>
                <svg version="1.1" xmlns:xlink="http://www.w3.org/1999/xlink" x="-96.23265763876131" y="5" viewBox="3.9899814251128367 21.686 92.00001857488718 55.94275" enable-background="new 0 0 100 100" xml:space="preserve" height="37.3" width="62.23265763876131" id="icon-0" class="icon-0" fill="#4285f4" data-fill-palette-color="accent" data-stroke-palette-color="transparent">
                    <circle fill="#4285f4" cx="24.841" cy="33.701" r="7.544" data-fill-palette-color="accent" data-stroke-palette-color="transparent"></circle>
                    <path fill="#4285f4" d="M68.034,22.686c-12.703,0-23.354,8.843-26.189,20.69h-9.161l-0.002,0.021l-16.56,0.006	c-7.281,0-11.132,4.911-11.132,9.922v19.904c-0.013,4.533,6.802,4.533,6.802,0V53.806h3.278l0.007,22.287h19.913l-0.003-24.912
	h6.174c0.806,14.145,12.533,25.413,26.875,25.413c14.863,0,26.954-12.093,26.954-26.953C94.989,34.779,82.897,22.686,68.034,22.686z
	 M68.034,26.429c4.313,0,8.339,1.204,11.803,3.259l-5.162,5.161c-2.029-0.915-4.273-1.436-6.641-1.436
	c-2.397,0-4.668,0.536-6.718,1.475l-5.157-5.154C59.639,27.651,63.691,26.429,68.034,26.429z M53.244,56.279l-5.16,5.163
	c-2.057-3.465-3.261-7.492-3.261-11.802c0-4.343,1.221-8.396,3.304-11.875l5.156,5.153c-0.938,2.052-1.476,4.323-1.476,6.722
	C51.809,52.007,52.33,54.25,53.244,56.279z M68.034,72.851c-4.372,0-8.453-1.238-11.948-3.349l5.147-5.15
	c2.072,0.961,4.37,1.515,6.802,1.515c2.399,0,4.671-0.537,6.72-1.475l5.156,5.156C76.43,71.63,72.375,72.851,68.034,72.851z
	 M68.034,62.123c-6.374,0-11.639-4.807-12.385-10.982c1.019,0.001,1.882,0.001,1.887,0.001c2.297,0,4.159-1.805,4.159-4.029
	c0-2.226-1.862-4.03-4.159-4.03c-0.012,0-0.021,0.003-0.032,0.003l-0.073,0.002c2.202-3.552,6.126-5.931,10.604-5.931
	c6.884,0,12.483,5.598,12.483,12.481C80.518,56.522,74.918,62.123,68.034,62.123z M82.785,56.36c0.938-2.051,1.478-4.322,1.478-6.72
	c0-2.43-0.554-4.729-1.515-6.8l5.148-5.149c2.111,3.495,3.35,7.572,3.35,11.947c0,4.342-1.222,8.396-3.306,11.876L82.785,56.36z" data-fill-palette-color="accent" data-stroke-palette-color="transparent"></path>
                </svg>
            </g>
            <g></g>
            <g>
                <circle r="48.866328819380655" cx="-65.11632881938066" cy="23.75" fill="#4285f4" stroke-width="0" stroke="#4285f4" data-fill-palette-color="primary" data-stroke-palette-color="primary" id="circle-1" class="circle-1" mask="url(#03664370-a055-11eb-a2a1-3dd3524e2f10)" data-palette-color="#4285f4"></circle>
            </g>
        </g>
        <g id="character" width="208.41286034713292" height="208.41286034713292" style="display: none;" transform="matrix(1,0,0,1,213.9826576387613,125.11632881938067)">
            <path d="M47.81 156.31L20.46 156.31 20.46 95.82Q20.46 83.84 26.25 73.86 32.04 63.88 42.92 57.99 53.8 52.1 69.17 52.1L69.17 52.1Q76.56 52.1 82.85 53.8 89.13 55.5 94.52 58.69 99.91 61.89 103.91 66.28L103.91 66.28 104.11 66.28Q108.3 61.89 113.69 58.69 119.08 55.5 125.47 53.8 131.86 52.1 139.24 52.1L139.24 52.1Q154.61 52.1 165.49 57.99 176.37 63.88 182.16 73.86 187.95 83.84 187.95 95.82L187.95 95.82 187.95 156.31 160.6 156.31 160.6 95.82Q160.6 90.23 157.71 85.64 154.81 81.05 150.02 78.25 145.23 75.46 139.24 75.46L139.24 75.46Q133.45 75.46 128.56 78.25 123.67 81.05 120.78 85.64 117.88 90.23 117.88 95.82L117.88 95.82 117.88 156.31 90.53 156.31 90.53 95.82Q90.53 90.23 87.64 85.64 84.74 81.05 79.95 78.25 75.16 75.46 69.17 75.46L69.17 75.46Q63.38 75.46 58.49 78.25 53.6 81.05 50.71 85.64 47.81 90.23 47.81 95.82L47.81 95.82 47.81 156.31Z" fill="#4285f4"></path>
        </g>
    </g>
</svg>