<svg xmlns="http://www.w3.org/2000/svg" data-version="3.4.38" data-background-color="#ffffff" width="251.32750000000004" height="47.3" viewBox="-0 0 251.32750000000004 47.3" x="0" y="23.63367118061933">
    <g transform="matrix(1,0,0,1,0,0)">
        <g id="tight-bounds">
            <g></g>
            <g>
                <svg version="1.1" xmlns:xlink="http://www.w3.org/1999/xlink" xmlns:svgjs="http://svgjs.com/svgjs" viewBox="3.25 -37.15 251.33 47.3" width="251.32750000000004" height="47.3" x="0" y="0" data-palette-color="#4285f4">
                    <path d="M10.10 0L3.25 0L3.25-15.15Q3.25-18.15 4.70-20.65Q6.15-23.15 8.88-24.63Q11.60-26.10 15.45-26.10L15.45-26.10Q17.30-26.10 18.88-25.68Q20.45-25.25 21.80-24.45Q23.15-23.65 24.15-22.55L24.15-22.55L24.20-22.55Q25.25-23.65 26.60-24.45Q27.95-25.25 29.55-25.68Q31.15-26.10 33-26.10L33-26.10Q36.85-26.10 39.58-24.63Q42.30-23.15 43.75-20.65Q45.20-18.15 45.20-15.15L45.20-15.15L45.20 0L38.35 0L38.35-15.15Q38.35-16.55 37.63-17.70Q36.90-18.85 35.70-19.55Q34.50-20.25 33-20.25L33-20.25Q31.55-20.25 30.33-19.55Q29.10-18.85 28.38-17.70Q27.65-16.55 27.65-15.15L27.65-15.15L27.65 0L20.80 0L20.80-15.15Q20.80-16.55 20.08-17.70Q19.35-18.85 18.15-19.55Q16.95-20.25 15.45-20.25L15.45-20.25Q14-20.25 12.78-19.55Q11.55-18.85 10.83-17.70Q10.10-16.55 10.10-15.15L10.10-15.15L10.10 0ZM67.65 10.15L60.80 10.15L60.80 0.25Q57.90-0.35 55.87-1.95Q53.85-3.55 52.77-5.88Q51.70-8.20 51.70-10.85L51.70-10.85L51.70-25.50L58.55-25.50L58.55-10.85Q58.55-9.30 59.30-8.03Q60.05-6.75 61.32-6Q62.60-5.25 64.15-5.25L64.15-5.25Q65.70-5.25 66.97-6Q68.25-6.75 69.00-8.03Q69.75-9.30 69.75-10.85L69.75-10.85L69.75-25.50L76.60-25.50L76.60-10.85Q76.60-8.20 75.55-5.93Q74.50-3.65 72.50-2.02Q70.50-0.40 67.65 0.20L67.65 0.20L67.65 10.15ZM109.54 0L96.44 0L96.44-5.85L108.89-5.85Q109.49-5.85 109.97-6.10Q110.44-6.35 110.72-6.80Q110.99-7.25 110.99-7.80L110.99-7.80Q110.99-8.40 110.72-8.85Q110.44-9.30 109.97-9.58Q109.49-9.85 108.89-9.85L108.89-9.85L104.09-9.85Q101.64-9.85 99.67-10.63Q97.69-11.40 96.52-13.13Q95.34-14.85 95.34-17.65L95.34-17.65Q95.34-19.80 96.42-21.58Q97.49-23.35 99.32-24.43Q101.14-25.50 103.34-25.50L103.34-25.50L115.29-25.50L115.29-19.65L103.99-19.65Q103.24-19.65 102.67-19.15Q102.09-18.65 102.09-17.85L102.09-17.85Q102.09-17.05 102.64-16.53Q103.19-16 103.99-16L103.99-16L108.79-16Q111.54-16 113.54-15.18Q115.54-14.35 116.64-12.60Q117.74-10.85 117.74-8L117.74-8Q117.74-5.80 116.64-3.98Q115.54-2.15 113.69-1.07Q111.84 0 109.54 0L109.54 0ZM143.14 0L135.94 0Q131.59 0 128.37-1.68Q125.14-3.35 123.37-6.25Q121.59-9.15 121.59-12.75L121.59-12.75Q121.59-16.80 123.24-19.80Q124.89-22.80 127.74-24.45Q130.59-26.10 134.19-26.10L134.19-26.10Q138.49-26.10 141.17-24.30Q143.84-22.50 145.09-19.48Q146.34-16.45 146.34-12.75L146.34-12.75Q146.34-12.25 146.29-11.58Q146.24-10.90 146.14-10.55L146.14-10.55L128.89-10.55Q129.29-9 130.27-7.95Q131.24-6.90 132.72-6.38Q134.19-5.85 136.04-5.85L136.04-5.85L143.14-5.85L143.14 0ZM128.84-15.15L128.84-15.15L139.49-15.15Q139.39-16.10 139.14-16.93Q138.89-17.75 138.44-18.40Q137.99-19.05 137.39-19.50Q136.79-19.95 135.99-20.20Q135.19-20.45 134.24-20.45L134.24-20.45Q132.99-20.45 132.02-20Q131.04-19.55 130.39-18.80Q129.74-18.05 129.37-17.10Q128.99-16.15 128.84-15.15ZM157.79 0L150.94 0L150.94-18.25Q150.94-21.65 152.86-23.58Q154.79-25.50 158.19-25.50L158.19-25.50L165.24-25.50L165.24-19.65L159.39-19.65Q158.74-19.65 158.26-19.20Q157.79-18.75 157.79-18.05L157.79-18.05L157.79 0ZM180.14 0.60L180.14 0.60Q177.89 0.60 176.06-0.60Q174.24-1.80 173.54-3.75L173.54-3.75L166.24-25.50L173.69-25.50L179.59-6.55Q179.69-6.35 179.84-6.25Q179.99-6.15 180.19-6.15L180.19-6.15Q180.39-6.15 180.56-6.25Q180.74-6.35 180.79-6.55L180.79-6.55L186.74-25.50L194.04-25.50L186.74-3.80Q186.04-1.85 184.21-0.63Q182.39 0.60 180.14 0.60ZM204.68 0L197.78 0L197.78-25.50L204.68-25.50L204.68 0ZM201.23-28.55L201.23-28.55Q199.48-28.55 198.21-29.83Q196.93-31.10 196.93-32.85L196.93-32.85Q196.93-34.60 198.21-35.88Q199.48-37.15 201.23-37.15L201.23-37.15Q202.98-37.15 204.26-35.88Q205.53-34.60 205.53-32.85L205.53-32.85Q205.53-31.10 204.26-29.83Q202.98-28.55 201.23-28.55ZM226.58 0L223.38 0Q219.43 0 216.33-1.70Q213.23-3.40 211.43-6.28Q209.63-9.15 209.63-12.75L209.63-12.75Q209.63-16.35 211.43-19.23Q213.23-22.10 216.33-23.80Q219.43-25.50 223.38-25.50L223.38-25.50L226.58-25.50L226.58-19.65L223.38-19.65Q221.28-19.65 219.76-18.75Q218.23-17.85 217.41-16.28Q216.58-14.70 216.58-12.75L216.58-12.75Q216.58-10.80 217.41-9.22Q218.23-7.65 219.76-6.75Q221.28-5.85 223.38-5.85L223.38-5.85L226.58-5.85L226.58 0ZM251.38 0L244.18 0Q239.83 0 236.60-1.68Q233.38-3.35 231.60-6.25Q229.83-9.15 229.83-12.75L229.83-12.75Q229.83-16.80 231.48-19.80Q233.13-22.80 235.98-24.45Q238.83-26.10 242.43-26.10L242.43-26.10Q246.73-26.10 249.40-24.30Q252.08-22.50 253.33-19.48Q254.58-16.45 254.58-12.75L254.58-12.75Q254.58-12.25 254.53-11.58Q254.48-10.90 254.38-10.55L254.38-10.55L237.13-10.55Q237.53-9 238.50-7.95Q239.48-6.90 240.95-6.38Q242.43-5.85 244.28-5.85L244.28-5.85L251.38-5.85L251.38 0ZM237.08-15.15L237.08-15.15L247.73-15.15Q247.63-16.10 247.38-16.93Q247.13-17.75 246.68-18.40Q246.23-19.05 245.63-19.50Q245.03-19.95 244.23-20.20Q243.43-20.45 242.48-20.45L242.48-20.45Q241.23-20.45 240.25-20Q239.28-19.55 238.63-18.80Q237.98-18.05 237.60-17.10Q237.23-16.15 237.08-15.15Z" opacity="1" transform="matrix(1,0,0,1,0,0)" fill="#4285f4" data-fill-palette-color="primary" data-stroke-palette-color="transparent" id="text-0" class="wordmark-0"></path>
                </svg>
            </g>
            <g></g>

        </g>
    </g>
</svg>